<svg id="visual" viewBox="0 0 960 540" width="960" height="540" xmlns="http://www.w3.org/2000/svg" xmlns:xlink="http://www.w3.org/1999/xlink" version="1.1"><rect x="0" y="0" width="960" height="540" fill="#fff0da"></rect><path d="M0 357L22.8 361.7C45.7 366.3 91.3 375.7 137 381.5C182.7 387.3 228.3 389.7 274 381.7C319.7 373.7 365.3 355.3 411.2 346.2C457 337 503 337 548.8 345.7C594.7 354.3 640.3 371.7 686 369.7C731.7 367.7 777.3 346.3 823 346C868.7 345.7 914.3 366.3 937.2 376.7L960 387L960 541L937.2 541C914.3 541 868.7 541 823 541C777.3 541 731.7 541 686 541C640.3 541 594.7 541 548.8 541C503 541 457 541 411.2 541C365.3 541 319.7 541 274 541C228.3 541 182.7 541 137 541C91.3 541 45.7 541 22.8 541L0 541Z" fill="#f9e1a5"></path><path d="M0 385L22.8 392.5C45.7 400 91.3 415 137 415.3C182.7 415.7 228.3 401.3 274 403.5C319.7 405.7 365.3 424.3 411.2 431.2C457 438 503 433 548.8 426.7C594.7 420.3 640.3 412.7 686 405C731.7 397.3 777.3 389.7 823 389C868.7 388.3 914.3 394.7 937.2 397.8L960 401L960 541L937.2 541C914.3 541 868.7 541 823 541C777.3 541 731.7 541 686 541C640.3 541 594.7 541 548.8 541C503 541 457 541 411.2 541C365.3 541 319.7 541 274 541C228.3 541 182.7 541 137 541C91.3 541 45.7 541 22.8 541L0 541Z" fill="#e6b074"></path><path d="M0 428L22.8 433C45.7 438 91.3 448 137 451.5C182.7 455 228.3 452 274 452.3C319.7 452.7 365.3 456.3 411.2 451.8C457 447.3 503 434.7 548.8 431.8C594.7 429 640.3 436 686 443C731.7 450 777.3 457 823 452.5C868.7 448 914.3 432 937.2 424L960 416L960 541L937.2 541C914.3 541 868.7 541 823 541C777.3 541 731.7 541 686 541C640.3 541 594.7 541 548.8 541C503 541 457 541 411.2 541C365.3 541 319.7 541 274 541C228.3 541 182.7 541 137 541C91.3 541 45.7 541 22.8 541L0 541Z" fill="#d37d51"></path><path d="M0 505L22.8 502.5C45.7 500 91.3 495 137 489.7C182.7 484.3 228.3 478.7 274 477.5C319.7 476.3 365.3 479.7 411.2 484.2C457 488.7 503 494.3 548.8 495.2C594.7 496 640.3 492 686 489.8C731.7 487.7 777.3 487.3 823 488C868.7 488.7 914.3 490.3 937.2 491.2L960 492L960 541L937.2 541C914.3 541 868.7 541 823 541C777.3 541 731.7 541 686 541C640.3 541 594.7 541 548.8 541C503 541 457 541 411.2 541C365.3 541 319.7 541 274 541C228.3 541 182.7 541 137 541C91.3 541 45.7 541 22.8 541L0 541Z" fill="#bc473e"></path></svg>